<svg width="23" height="27" viewBox="0 0 23 27" fill="none" xmlns="http://www.w3.org/2000/svg">
<path d="M14.7381 13.8422C14.6645 12.4975 14.4134 11.021 15.1577 9.51048C15.4344 8.94883 15.8427 9.00038 16.2484 8.86688C16.6886 7.32411 16.6237 6.45284 16.6577 6.34687C16.684 6.26507 16.6663 5.87847 17.0536 5.87033C17.4265 5.86245 17.4319 6.31155 17.4121 6.42106C17.4035 6.46922 17.5197 7.10893 17.0731 8.81901C17.0654 8.84877 17.3417 8.88424 17.4774 9.01951C17.613 9.15477 17.6642 9.35095 17.6979 9.54043C17.7493 9.83347 17.7696 10.1318 17.7585 10.4318C17.7355 10.8143 17.6869 11.197 17.6128 11.5777C17.4141 12.7297 18.0271 14.5134 16.8899 14.9027" fill="#a7aaad"/>
<path d="M15.6699 15.8965C14.8402 17.2976 14.8237 19.0078 15.6271 20.3199C15.871 20.7181 16.1943 21.0876 16.6358 21.3183C17.0772 21.549 17.6514 21.625 18.1519 21.4395C18.2834 21.3958 18.4017 21.3226 18.4942 21.2274C18.6328 21.0727 18.6546 20.8682 18.6679 20.6777C18.7211 19.9196 18.7326 19.1425 18.4498 18.4456C18.2353 17.9176 17.862 17.4606 17.4929 17.0107L16.4054 15.6848C16.0944 15.306 15.866 15.5657 15.6699 15.8965Z" fill="#a7aaad"/>
<path d="M17.7996 18.0013C18.0412 18.6247 18.3822 19.2087 18.7221 19.7904C18.9286 20.1434 19.1481 20.5099 19.521 20.7298C19.7131 20.8402 19.9349 20.9075 20.1689 20.9264C20.4029 20.9452 20.6425 20.9149 20.8686 20.8381C21.0934 20.7581 21.2984 20.6353 21.4681 20.479C21.6378 20.3226 21.7679 20.1367 21.8485 19.9353C22.0958 19.3081 21.8319 18.6489 21.5145 18.0827C20.947 17.071 20.2039 16.1515 19.3104 15.355C18.9208 15.0078 18.4876 14.677 17.9504 14.5317C17.2217 14.3345 16.001 14.6253 16.0549 15.4923C16.0882 16.03 16.9489 16.2271 17.2355 16.6664C17.5033 17.0765 17.6257 17.5526 17.7996 18.0013Z" fill="#a7aaad"/>
<path d="M12.7335 17.0277C13.2572 16.915 13.9948 16.7196 14.5074 16.5698C15.0278 16.4175 15.549 16.2429 15.9965 15.9713C16.444 15.6997 16.8143 15.3176 16.9193 14.8899C17.0242 14.4623 16.8173 13.9964 16.3511 13.8118C15.8689 13.6205 15.2582 13.7558 14.7219 13.9188C13.5347 14.2799 11.2985 15.2302 10.2528 15.8285" fill="#a7aaad"/>
<path d="M10.1774 18.3476C8.43344 20.769 9.48636 24.0584 6.85055 24.0559C3.62517 24.0533 6.3167 19.0466 8.15186 17.3022C9.36023 16.2333 11.2815 16.8144 10.1774 18.3476Z" fill="#a7aaad"/>
<path d="M7.63704 15.3581C7.92993 15.7738 8.24267 16.192 8.69601 16.4777C9.14934 16.7633 9.77525 16.8964 10.3231 16.6945C10.9761 16.454 11.3481 15.7932 11.3367 15.1948C11.3253 14.5963 11.0035 14.0551 10.6279 13.5758C10.2572 13.1026 9.82691 12.6665 9.49039 12.1734C8.87196 11.2655 8.58187 10.1779 7.81417 9.36531C7.56381 9.10035 7.25475 8.86386 6.87095 8.7632C6.48715 8.66255 6.01876 8.72023 5.71087 8.97446C5.30707 9.30871 5.29585 9.8447 5.35284 10.3046C5.59379 12.2435 6.50085 13.7454 7.63704 15.3581Z" fill="#a7aaad"/>
<path d="M10.2579 17.8965C11.0517 20.9659 8.31967 24.3502 11.2557 24.9522C14.8483 25.689 14.2255 19.5524 13.0093 17.2086C12.1706 15.7532 9.75544 15.9533 10.2579 17.8965Z" fill="#a7aaad"/>
<path d="M3.92013 4.43016C3.83698 4.68392 3.83509 4.94787 3.85055 5.20564C3.88596 5.79743 4.0076 6.3771 4.12958 6.95509C4.25059 7.52853 4.43201 8.17509 5.02455 8.41729C5.32963 8.54213 5.69706 8.53139 6.03712 8.45253C6.55163 8.3329 7.05291 8.03512 7.26379 7.60048C7.6232 6.85981 7.04558 6.09662 6.9833 5.31761C6.94977 4.89842 7.06659 4.45245 6.9081 4.06393C6.72355 3.61102 5.90773 3.07419 5.3169 3.1357C4.7309 3.19668 4.07018 3.97202 3.92013 4.43016Z" fill="#a7aaad"/>
<path d="M7.89588 2.99064C7.47668 3.36967 7.24753 3.87739 7.104 4.38061C6.96047 4.88383 6.88989 5.3984 6.72649 5.89811C6.56656 6.38675 6.31735 6.86329 6.25878 7.36319C6.21103 7.77125 6.29354 8.17574 6.42446 8.55795C6.60093 9.07357 6.93962 9.61373 7.54353 9.716C8.08598 9.80791 8.65297 9.50447 9.04996 9.13105C9.86111 8.36815 10.2001 7.3276 10.4563 6.32917C10.6302 5.65139 10.7809 4.95807 10.7033 4.28211C10.5614 3.04757 9.29494 1.72544 7.89588 2.99064Z" fill="#a7aaad"/>
<path d="M1.86456 9.37801C2.24271 9.7505 2.82867 9.90117 3.38615 10.037C4.13841 10.2199 4.91153 10.4048 5.70798 10.335C6.18939 10.2928 6.68435 10.1475 7.04433 9.84654C7.4043 9.54561 7.59662 9.06888 7.42702 8.68651C7.25935 8.30818 6.80388 8.10805 6.36971 7.9646C5.25494 7.59611 3.86509 7.28588 2.6242 7.38278C1.46115 7.47348 1.18271 8.70641 1.86456 9.37801Z" fill="#a7aaad"/>
<path d="M1.99373 7.8832C1.71568 7.7977 1.42408 7.71097 1.12369 7.75148C1.01702 7.766 0.899394 7.80548 0.850277 7.89212C0.823552 7.95198 0.816712 8.01622 0.830597 8.07693C0.848828 8.21655 0.881954 8.36102 0.984836 8.46342C1.07801 8.54503 1.19485 8.60289 1.32441 8.63159C1.56298 8.6979 1.81392 8.73174 2.069 8.73201" fill="#a7aaad"/>
</svg>
